<svg width="100" height="100" viewBox="0 0 100 100" fill="none" xmlns="http://www.w3.org/2000/svg">
<path d="M9.08564 24.182C7.02485 22.2686 6 19.9003 6 17.0823C6 14.2643 7.03033 11.7916 9.08564 9.87279C11.1464 7.95942 13.7992 7 17.0493 7C20.2994 7 22.848 7.95942 24.9034 9.87279C26.9641 11.7862 27.989 14.193 27.989 17.0823C27.989 19.9715 26.9587 22.2686 24.9034 24.182C22.8426 26.0954 20.2282 27.0548 17.0493 27.0548C13.8704 27.0548 11.1464 26.0954 9.08564 24.182ZM26.2571 35.1579V93.82H7.72641V35.1579H26.2571Z" fill="black"/>
<path d="M87.9437 40.9527C91.9831 45.3387 94.0001 51.3585 94.0001 59.0229V92.7837H76.4012V61.4022C76.4012 57.5371 75.3982 54.5328 73.3977 52.3946C71.3972 50.2565 68.7007 49.1818 65.3245 49.1818C61.9483 49.1818 59.2516 50.251 57.2511 52.3946C55.2506 54.5328 54.2476 57.5371 54.2476 61.4022V92.7837H36.5447V34.9934H54.2476V42.6578C56.0399 40.103 58.457 38.0854 61.4934 36.5997C64.5298 35.1139 67.9443 34.3738 71.7425 34.3738C78.5059 34.3738 83.9098 36.5668 87.9437 40.9527Z" fill="black"/>
</svg>
